<?xml version="1.0" standalone="no"?>
<!DOCTYPE svg PUBLIC "-//W3C//DTD SVG 20010904//EN" "http://www.w3.org/TR/2001/REC-SVG-20010904/DTD/svg10.dtd">
<!-- Created using Krita: https://krita.org -->
<svg xmlns="http://www.w3.org/2000/svg" 
    xmlns:xlink="http://www.w3.org/1999/xlink"
    xmlns:krita="http://krita.org/namespaces/svg/krita"
    xmlns:sodipodi="http://sodipodi.sourceforge.net/DTD/sodipodi-0.dtd"
    width="992pt"
    height="600pt"
    viewBox="0 0 992 600">
<defs/>
<path id="shape0" transform="translate(320.999983326174, 121.087142927429)" fill="#000000" d="M5.39957 9.69156C1.79986 3.45667 2.89362e-7 0.339225 0 0.339225C0.114065 0.370741 0.201755 0.382228 0.26307 0.373686C1.0187 0.268422 1.6492 -0.0350402 2.41116 0.00333324C3.67154 0.0668083 4.78001 0.203669 5.95644 0.660414C8.99859 1.84152 11.4945 3.13292 14.3831 4.65141C15.6107 5.29675 16.5238 6.08415 17.693 6.83015C18.8788 7.58679 19.9422 8.16178 21.1112 8.94424C23.6886 10.6694 26.0259 11.9896 28.3938 13.9927C29.7188 15.1135 30.5993 16.3609 31.5751 17.796C32.2217 18.747 33.0052 20.1911 33.9255 22.1281L44.2842 40.0699C44.8402 41.3317 45.1994 42.3224 45.3618 43.042C46.0955 46.2938 46.7452 49.0945 47.0689 52.4123C47.5114 56.9484 47.8166 60.8758 47.5455 65.4253C47.3513 68.6844 46.6822 71.4504 45.748 74.5788C44.7756 77.8354 43.5162 80.4873 42.1222 83.587C41.574 84.8058 40.9304 85.7664 40.2102 86.8923C39.4558 88.0716 38.7089 89.0152 37.913 90.167C37.1354 91.2924 36.5071 92.2834 35.7145 93.3983C32.4601 97.9764 29.3881 101.707 26.3509 106.432C25.0865 108.399 24.3284 110.284 23.4636 112.456C23.0469 113.503 22.7788 114.461 22.707 115.585C22.6424 116.598 22.7489 117.501 23.0804 118.46C23.2865 119.056 23.7587 119.824 24.4968 120.763L14.1216 102.793C15.9574 104.338 17.4238 105.448 18.5207 106.122C19.6439 106.811 20.735 107.176 21.9772 107.617C23.2594 108.072 24.3956 108.355 25.7176 108.677C26.9846 108.986 28.0847 109.192 29.369 109.418C30.6096 109.636 31.6797 109.786 32.9291 109.946C34.1482 110.103 35.1966 110.21 36.4204 110.324C37.6233 110.436 38.6563 110.512 39.8618 110.594C41.0529 110.674 42.075 110.729 43.2674 110.787C44.45 110.844 45.4642 110.883 46.6475 110.925C47.8239 110.966 48.8326 110.994 50.0093 111.023C51.1813 111.053 52.1859 111.072 53.358 111.094C54.5268 111.115 55.5286 111.129 56.6974 111.144C57.8638 111.159 58.8636 111.169 60.0301 111.18C61.1949 111.19 62.1932 111.198 63.358 111.205C64.5216 111.213 65.519 111.218 66.6825 111.224C67.8453 111.229 68.8419 111.233 70.0046 111.237C71.1667 111.241 72.1629 111.243 73.325 111.246C74.4867 111.249 75.487 111.149 76.6441 111.253C79.861 111.54 82.5989 111.972 85.8051 112.361C87.0458 112.511 88.1104 112.631 89.3496 112.793C90.5685 112.953 91.6079 113.129 92.8278 113.28C94.0265 113.429 95.0584 113.518 96.259 113.65C97.4494 113.78 98.4735 113.862 99.6592 114.03C100.006 114.079 100.495 114.181 101.127 114.337L111.5 132.303C110.85 132.1 110.345 131.97 109.984 131.913C108.8 131.727 107.772 131.662 106.581 131.529C105.378 131.393 104.343 131.298 103.142 131.144C101.918 130.987 100.876 130.805 99.6531 130.639C98.4105 130.471 97.3441 130.334 96.0985 130.189C92.9103 129.818 90.184 129.43 86.9852 129.164C85.8274 129.068 84.8276 129.16 83.6659 129.157C82.5037 129.154 81.5075 129.151 80.3453 129.147C79.1824 129.143 78.1857 129.139 77.0229 129.134C75.8591 129.128 74.8616 129.122 73.6979 129.114C72.5328 129.106 71.5342 129.099 70.3692 129.088C69.2024 129.076 68.2023 129.066 67.0356 129.05C65.8663 129.034 64.864 129.019 63.6948 128.997C62.522 128.975 61.5168 128.955 60.3442 128.924C59.1664 128.893 58.157 128.864 56.9796 128.82C55.7949 128.777 54.7795 128.736 53.5955 128.676C52.401 128.614 51.3772 128.557 50.1841 128.473C48.9756 128.387 47.9399 128.307 46.7342 128.188C45.5059 128.067 44.4536 127.954 43.2305 127.789C41.9744 127.619 40.8987 127.46 39.6522 127.229C38.3591 126.99 37.253 126.766 35.9771 126.447C34.6535 126.116 33.5155 125.83 32.2296 125.374C30.9926 124.936 29.9104 124.569 28.7832 123.897C27.7191 123.262 26.2903 122.218 24.4968 120.763L14.1216 102.793C13.3588 101.821 12.8711 101.026 12.6585 100.409C12.3409 99.4868 12.2711 98.6124 12.3465 97.6402C12.4331 96.5226 12.6902 95.5684 13.1144 94.5308C13.9923 92.3831 14.7791 90.5286 16.0476 88.5858C19.1113 83.8932 22.1709 80.1697 25.4552 75.6287C26.249 74.5313 26.9251 73.5875 27.6992 72.4761C28.5043 71.32 29.2197 70.3449 29.9671 69.1507C30.6788 68.0135 31.3199 67.0464 31.8648 65.8205C33.2491 62.706 34.5149 60.0459 35.4682 56.7736C36.3911 53.6056 37.0162 50.8009 37.2 47.5063C37.4543 42.9491 37.1591 39.0169 36.7125 34.4744C36.3856 31.1505 35.7311 28.3453 34.9956 25.0873C34.834 24.3711 34.4773 23.3847 33.9255 22.1281L44.2842 40.0699C43.357 38.1224 42.5687 36.67 41.9193 35.7128C40.9224 34.2431 40.0292 32.9621 38.6795 31.808C36.2979 29.7715 33.9431 28.4257 31.3463 26.672C30.1753 25.8812 29.1095 25.2994 27.9178 24.5401C26.7565 23.8002 25.853 23.0096 24.6238 22.3889C21.8037 20.9649 19.368 19.7383 16.3795 18.7137C15.2706 18.3336 14.2137 18.354 13.0432 18.4186C12.3074 18.4592 11.7323 18.8116 11.0224 19.0094C10.9716 19.0236 10.8972 19.0351 10.7991 19.0439L10.7991 19.0439C10.7991 19.0439 8.99928 15.9264 5.39957 9.69156Z"/><path id="shape1" transform="translate(358.499981378297, 351.689282712754)" fill="#000000" d="M59.7609 42.2001C57.6544 38.5514 56.6011 36.7271 56.6011 36.7271C56.6967 36.6657 56.7675 36.615 56.8133 36.5749C57.2259 36.2146 57.5615 35.8855 57.9754 35.5268C58.3222 35.2263 58.6645 35.019 58.9863 34.6918C59.1395 34.5361 59.275 34.377 59.3173 34.1627C59.3972 33.7566 59.4139 33.3841 59.3234 32.9802C59.248 32.644 59.0559 32.1908 58.7472 31.6205L64.8424 42.1778C64.423 41.5389 64.064 41.081 63.7653 40.804C63.0308 40.1228 62.3681 39.5494 61.4895 39.0682C60.3741 38.4573 59.3639 37.9703 58.1188 37.7115C56.8053 37.4384 55.6291 37.5278 54.2883 37.5713C53.2278 37.6057 52.3112 37.6896 51.2786 37.9332C50.3463 38.1532 49.5994 38.5231 48.7132 38.8868C48.0378 39.164 47.4697 39.4299 46.8201 39.7631C46.1802 40.0914 45.61 40.3476 45.0318 40.7754C44.5365 41.1418 44.0974 41.4847 43.7797 42.0125C43.5373 42.4152 43.4599 42.8568 43.4966 43.3255C43.5325 43.7838 43.7453 44.1513 43.9784 44.5475C44.1659 44.8662 44.4902 45.2831 44.9514 45.7983L38.8474 35.2257C40.2771 36.4117 41.3574 37.3456 42.0884 38.0274C42.9502 38.8314 43.601 39.6097 44.4372 40.4402C44.9534 40.9528 45.4067 41.3819 45.9515 41.864C46.8034 42.6176 47.4381 43.4073 48.4267 43.9698C49.8173 44.7609 51.1382 45.2037 52.6646 45.6832C54.8897 46.3823 56.8141 46.9918 59.1219 47.33C62.525 47.8287 65.4851 47.9161 68.9213 48.0654C70.1847 48.1203 71.2921 48.1649 72.5313 47.9127C73.9485 47.6243 75.1323 47.1804 76.428 46.5379C77.8394 45.8381 79.0311 45.1439 80.2138 44.1032C81.3111 43.1377 82.0069 42.0597 82.8635 40.8755C83.4487 40.0664 83.8742 39.316 84.322 38.4234C85.1205 36.8314 85.9043 35.492 86.4191 33.787C86.9038 32.1817 87.0155 30.7236 87.1518 29.0523C87.2878 27.3843 87.4593 25.9235 87.1951 24.271C86.8955 22.3965 86.3022 20.8469 85.5609 19.0993C84.9559 17.6731 83.9361 15.7087 82.5016 13.2063L88.4748 23.5522C87.7681 22.6493 87.19 21.9881 86.7403 21.5689C85.3731 20.2939 84.1926 19.1915 82.6562 18.1263C81.1705 17.0962 79.7765 16.3894 78.1454 15.6095C77.3547 15.2314 76.6135 15.0516 75.7652 14.8313C72.6488 14.0218 69.9558 13.4143 66.8234 12.6687C65.826 12.4312 64.9711 12.2258 63.9661 12.0225C62.9977 11.8265 62.1707 11.6188 61.1868 11.5281C56.3728 11.0844 52.2364 10.8195 47.4128 10.4967C46.3736 10.4272 45.4796 10.4321 44.4384 10.4073C43.3516 10.3814 42.4199 10.3662 41.3329 10.3518C40.2894 10.3381 39.3948 10.3341 38.3512 10.3268C37.3454 10.3198 36.4832 10.3004 35.4774 10.3108C34.4991 10.3209 33.6482 10.2258 32.6829 10.3855C30.6511 10.7217 28.8839 11.0069 26.9524 11.7214C24.7063 12.5523 22.8723 13.525 20.8271 14.771C18.882 15.956 17.2401 17.0654 15.595 18.6407C14.2035 19.9731 13.3615 21.4376 12.2338 22.9995C11.6838 23.7614 11.243 24.4413 10.8064 25.2734C9.82064 27.1517 8.92463 28.7487 8.17527 30.7332C7.48657 32.557 7.15558 34.2094 6.71493 36.1085C6.5298 36.9063 6.47373 37.6112 6.39029 38.426C6.2204 40.085 6.04346 41.5072 5.99137 43.1741C5.94898 44.5305 6.01008 45.6968 6.1208 47.0494C6.22834 48.3631 6.36585 49.4885 6.61421 50.783C6.77118 51.6011 6.93286 52.3101 7.27578 53.0693C7.73075 54.0765 8.48181 55.4653 9.52895 57.2356L3.56069 46.8983C5.17557 48.8461 6.50546 50.2504 7.55034 51.1113C10.7065 53.7118 13.5065 55.8589 17.0053 57.9759C20.9534 60.3647 24.6091 61.9309 28.7609 63.9449C31.1169 65.0878 33.2034 65.9234 35.5936 66.993C37.7947 67.9779 39.6904 68.8023 41.8789 69.8147C43.2929 70.4688 44.4699 71.1033 45.8855 71.754C47.9917 72.722 49.8214 73.4978 51.9397 74.439C53.324 75.054 54.5165 75.5678 55.8928 76.2003C57.2476 76.8228 58.3989 77.3777 59.7424 78.0242C61.6726 78.9529 63.3325 79.7381 65.246 80.7008C67.1854 81.6766 68.8527 82.5062 70.7497 83.5621C72.1021 84.3148 73.2343 85.0109 74.5249 85.8654C77.1987 87.6356 79.4893 89.1592 82.073 91.0585C83.9337 92.4262 85.5367 93.6068 87.2146 95.1934C90.3447 98.153 93.0668 100.685 95.7865 104.025C96.664 105.103 97.6202 106.843 98.655 109.246L104.569 119.489C105.015 120.672 105.303 121.595 105.433 122.26C105.914 124.719 106.421 126.835 106.495 129.34C106.548 131.094 106.148 132.587 105.791 134.306C105.614 135.158 105.424 135.908 104.976 136.654C103.815 138.585 102.738 140.215 101.232 141.891C99.5309 143.785 97.8267 145.177 95.8639 146.797C94.9894 147.519 94.1322 148 93.1484 148.564C92.1526 149.135 91.2811 149.604 90.2169 150.034C87.85 150.991 85.8135 151.816 83.3597 152.52C81.4344 153.072 79.7195 153.292 77.7424 153.612C76.2936 153.847 75.0398 153.974 73.5778 154.105C72.0031 154.245 70.6484 154.304 69.0696 154.388C66.472 154.526 64.2447 154.631 61.6457 154.74C59.1477 154.844 57.006 154.924 54.5069 154.995C52.9576 155.039 51.6289 155.088 50.0791 155.066C47.6617 155.031 45.5867 155.009 43.1756 154.832C40.5222 154.637 38.2443 154.438 35.6192 154.005C31.3594 153.303 27.6806 152.753 23.5223 151.592C21.7359 151.093 20.3438 150.238 18.7468 149.295C17.7275 148.692 16.9208 148.045 16.0894 147.202C14.6785 145.771 13.4992 144.491 12.3695 142.829C11.8588 142.078 11.3088 140.903 10.7195 139.303L4.7468 128.958C4.31449 126.593 4.09405 124.766 4.08548 123.478C4.07563 121.998 4.36666 120.739 4.68247 119.293C4.88362 118.373 5.18651 117.613 5.55625 116.747C5.92712 115.877 6.19753 115.08 6.79292 114.346C7.67117 113.263 8.57942 112.45 9.70658 111.63C10.6243 110.962 11.5184 110.525 12.5829 110.131C15.4023 109.087 17.8668 108.312 20.7705 107.532C21.9515 107.215 23.0115 107.16 24.2244 107.004C25.5206 106.836 26.6306 106.614 27.9375 106.608C31.7952 106.592 35.1184 106.535 38.9547 106.942C41.8916 107.253 44.3908 107.797 47.2176 108.653C48.9995 109.192 50.477 109.887 52.0384 110.901C52.96 111.499 53.5245 112.312 54.1942 113.183C54.4273 113.487 54.6701 113.976 54.9224 114.652L61.0311 125.233C61.0778 126.369 61.0451 127.235 60.9333 127.832C60.7495 128.811 60.4913 129.647 60.0367 130.534C59.2762 132.018 58.5042 133.237 57.4857 134.558C56.6788 135.604 55.8173 136.36 54.8491 137.259C54.2112 137.851 53.6338 138.334 52.9053 138.811C51.5727 139.682 50.4651 140.541 48.9746 141.101C47.0484 141.824 45.2675 142.035 43.2496 142.438C42.4111 142.605 41.6787 142.721 40.8237 142.726C39.5959 142.735 38.5249 142.735 37.3243 142.478C36.2722 142.252 35.3923 141.899 34.4597 141.362C33.903 141.042 33.5082 140.609 33.1506 140.076C32.7666 139.503 32.3252 138.622 31.8264 137.434L25.7761 126.954C25.5583 126.111 25.4584 125.459 25.4764 124.997C25.5044 124.281 25.6714 123.668 25.9302 122.999C26.1629 122.398 26.4459 121.903 26.864 121.412C27.3145 120.883 27.7714 120.468 28.3773 120.128C29.0818 119.733 30.1442 119.282 31.5644 118.776L37.5654 129.17C36.1565 129.7 35.1067 130.172 34.4162 130.588C33.8157 130.949 33.3977 131.412 32.9473 131.948C32.5392 132.435 32.2184 132.896 31.9848 133.486C31.719 134.158 31.5701 134.78 31.5411 135.502C31.5229 135.957 31.6179 136.601 31.8264 137.434L25.7761 126.954C26.2614 128.118 26.6919 128.98 27.0678 129.54C27.4307 130.081 27.8305 130.516 28.3903 130.849C29.3422 131.416 30.2339 131.812 31.3122 132.065C32.5186 132.348 33.601 132.363 34.8402 132.363C35.6933 132.362 36.4237 132.235 37.2589 132.061C39.2672 131.643 41.0317 131.39 42.9531 130.671C44.4444 130.113 45.5791 129.303 46.9214 128.446C47.6551 127.978 48.2332 127.494 48.8669 126.898C49.8322 125.989 50.684 125.215 51.4796 124.155C52.4878 122.811 53.2531 121.574 53.9924 120.065C54.44 119.152 54.6729 118.289 54.8451 117.287C54.9493 116.681 54.975 115.803 54.9224 114.652L61.0311 125.233C60.7526 124.508 60.4887 123.982 60.2394 123.654C59.5556 122.754 58.975 121.922 58.0372 121.291C56.44 120.216 54.9372 119.448 53.1063 118.852C50.2523 117.923 47.7233 117.306 44.7414 116.965C40.9088 116.525 37.5821 116.61 33.7245 116.631C32.4209 116.639 31.3134 116.861 30.0231 117.047C28.8238 117.22 27.7836 117.335 26.6149 117.655C23.7128 118.45 21.2221 119.152 18.4116 120.227C17.3524 120.632 16.5049 121.16 15.6143 121.862C14.5116 122.732 13.6354 123.584 12.7606 124.682C12.1784 125.414 11.8672 126.177 11.4957 127.034C11.1193 127.903 10.8344 128.673 10.6315 129.597C10.3161 131.035 10.0074 132.286 10.0207 133.758C10.0325 135.062 10.2655 136.91 10.7195 139.303L4.7468 128.958C5.3516 130.584 5.91332 131.779 6.43194 132.545C7.58802 134.252 8.78729 135.573 10.2273 137.048C11.0625 137.904 11.8772 138.557 12.9025 139.172C14.5135 140.138 15.9181 141.005 17.7187 141.54C21.9334 142.792 25.6577 143.472 29.9857 144.247C32.6084 144.717 34.8935 144.906 37.5516 145.091C39.9481 145.258 42.0112 145.242 44.4135 145.252C45.9551 145.259 47.2754 145.176 48.8165 145.139C51.3327 145.078 53.4904 145.06 56.0057 144.971C58.6057 144.879 60.8345 144.791 63.4305 144.621C64.9835 144.519 66.3093 144.362 67.8566 144.195C69.3146 144.038 70.5717 143.945 72.0167 143.695C73.9786 143.355 75.6801 143.103 77.5811 142.511C80.0077 141.755 81.9976 140.842 84.34 139.855C85.3988 139.41 86.2951 138.992 87.2927 138.422C88.2779 137.859 89.1333 137.368 89.9921 136.627C91.9309 134.953 93.5751 133.476 95.2579 131.544C96.7396 129.844 97.8366 128.23 98.9952 126.295C99.4424 125.548 99.6262 124.796 99.8085 123.945C100.172 122.247 100.59 120.775 100.549 119.04C100.49 116.561 99.997 114.464 99.5264 112.03C99.3971 111.362 99.1067 110.434 98.655 109.246L104.569 119.489C103.511 117.048 102.537 115.277 101.648 114.178C98.8813 110.757 96.1231 108.149 92.9408 105.111C91.2584 103.505 89.645 102.313 87.7735 100.932C85.187 99.023 82.8953 97.4883 80.2126 95.7168C78.9368 94.8743 77.807 94.2054 76.4683 93.467C74.5716 92.4208 72.9093 91.5913 70.973 90.6204C69.0617 89.662 67.4001 88.8878 65.476 87.9551C64.1172 87.2965 62.9629 86.7099 61.5933 86.0739C60.2212 85.4367 59.024 84.9371 57.6435 84.3181C55.5103 83.3617 53.6753 82.5564 51.5545 81.573C50.1424 80.9182 48.9594 80.2992 47.5503 79.6378C45.3378 78.5994 43.4362 77.7201 41.2076 76.7166C38.8347 75.6482 36.7573 74.8285 34.4036 73.7185C30.3199 71.7926 26.7055 70.3411 22.8183 68.0441C19.3487 65.994 16.5829 63.8838 13.4564 61.3409C12.428 60.5045 11.1188 59.136 9.52895 57.2356L3.56069 46.8983C2.4939 45.0968 1.72873 43.6836 1.26518 42.6586C0.929376 41.9161 0.781301 41.2193 0.630256 40.4185C0.386228 39.1247 0.245824 38.0012 0.139206 36.689C0.029457 35.3382 -0.0271346 34.1735 0.0128097 32.8189C0.0622592 31.1418 0.231281 29.7103 0.394219 28.0405C0.474389 27.2189 0.522025 26.5072 0.707185 25.7028C1.14432 23.8036 1.46818 22.1484 2.16894 20.3299C2.92481 18.3683 3.85043 16.8046 4.84886 14.9547C5.29349 14.1309 5.73409 13.4549 6.28712 12.6996C7.42223 11.1492 8.28306 9.70627 9.66725 8.37354C11.3102 6.7917 12.9124 5.6226 14.8637 4.4419C16.9149 3.20069 18.7935 2.31383 21.0447 1.48905C22.9718 0.783024 24.7164 0.437094 26.7394 0.090955C27.7073 -0.0746677 28.5625 0.0369951 29.5445 0.0346534C30.5558 0.0322417 31.4225 0.0602067 32.4337 0.0773759C33.4838 0.095207 34.3839 0.114516 35.434 0.134654C36.5218 0.155515 37.4543 0.170898 38.542 0.194518C39.5796 0.217048 40.4706 0.201706 41.5064 0.266511C46.3182 0.567564 50.4452 0.80586 55.2468 1.23966C56.2377 1.32918 57.0678 1.55486 58.0413 1.76036C59.0525 1.97383 59.9087 2.20445 60.9158 2.43641C64.017 3.15063 66.6922 3.69169 69.7795 4.46372C70.6319 4.67687 71.3741 4.86397 72.1639 5.24913C73.8152 6.0545 75.2164 6.7993 76.7234 7.85032C78.2488 8.91424 79.4288 10.003 80.7928 11.2674C81.235 11.6773 81.8047 12.3236 82.5016 13.2063L88.4748 23.5522C89.8879 26.0238 90.8933 27.9634 91.4912 29.3709C92.2514 31.1606 92.8784 32.7405 93.1928 34.6593C93.4623 36.304 93.2752 37.7598 93.138 39.4207C92.9999 41.0935 92.9074 42.558 92.4083 44.1605C91.8859 45.8376 91.0532 47.1293 90.2504 48.6918C89.7917 49.5846 89.4012 50.3609 88.807 51.1699C87.9479 52.3396 87.2083 53.3696 86.1142 54.323C84.9259 55.3585 83.7486 56.0681 82.3506 56.7962C81.0745 57.4608 79.9202 57.9624 78.5169 58.2801C77.2912 58.5575 76.1873 58.5265 74.9316 58.4756C71.4943 58.3361 68.5343 58.2353 65.1305 57.7372C62.8245 57.3997 60.9021 56.7895 58.6768 56.0968C57.1588 55.6243 55.8429 55.1943 54.4572 54.4148C53.4766 53.8632 52.8437 53.0864 52.0007 52.3413C51.4483 51.8531 50.994 51.4129 50.4719 50.8924C49.635 50.0584 48.9869 49.2734 48.1186 48.4721C47.4078 47.8162 46.3521 46.9249 44.9514 45.7983L38.8474 35.2257C38.3697 34.682 38.0327 34.2432 37.8365 33.9093C37.5918 33.4931 37.3538 33.1114 37.3214 32.6297C37.2921 32.1934 37.4178 31.7872 37.6698 31.4298C38.02 30.9332 38.4741 30.6288 38.9751 30.2848C39.5681 29.8777 40.1405 29.6313 40.7772 29.2965C41.4219 28.9576 41.9635 28.6406 42.6357 28.3603C43.5222 27.9906 44.2855 27.6559 45.222 27.4429C46.2575 27.2075 47.174 27.1253 48.2352 27.0871C49.5696 27.0391 50.74 26.9317 52.0485 27.1975C53.2919 27.45 54.2983 27.9404 55.4138 28.5449C56.2821 29.0154 56.9419 29.5729 57.6677 30.2426C57.9679 30.5196 58.3277 30.9789 58.7472 31.6205L64.8424 42.1778C65.1876 42.8023 65.4048 43.299 65.4939 43.6679C65.5912 44.0706 65.5728 44.4459 65.4884 44.8515C65.4449 45.0609 65.2911 45.2013 65.143 45.3556C64.8229 45.6892 64.483 45.9071 64.1588 46.2368C63.7629 46.6395 63.4578 47.017 63.089 47.4447C63.0458 47.4949 62.9897 47.571 62.9208 47.6731L62.9208 47.6731C62.9208 47.6731 61.8675 45.8488 59.7609 42.2001Z"/><path id="shape2" transform="translate(234.593231273672, 94.4758176694774)" fill="#000000" d="M342.907 355.224C347.777 363.659 350.212 367.877 350.212 367.877C350.086 367.441 349.957 367.123 349.827 366.92C349.139 365.851 348.631 364.842 347.7 363.976C343.815 360.366 340.301 357.468 336.131 354.192C329.207 348.753 323.099 344.315 316.015 339.086C309.556 334.319 303.905 330.39 297.44 325.631C290.959 320.86 285.479 316.67 279.027 311.858C274.733 308.656 271.035 305.935 266.739 302.734C262.586 299.641 259.033 296.982 254.89 293.877C250.784 290.8 247.25 288.183 243.172 285.07C239.237 282.066 235.981 279.338 231.996 276.4C219.583 267.251 209.083 259.2 196.323 250.539C186.432 243.825 177.374 238.968 167.32 232.499C154.583 224.303 143.809 217.058 131.214 208.644C126.391 205.422 122.172 202.771 117.557 199.257C102.507 187.795 89.2327 178.39 75.0485 165.872C64.0208 156.139 54.9927 147.199 45.6755 135.819C40.2097 129.142 33.3921 118.873 25.2228 105.011L12.5581 83.0746C7.55895 71.7015 4.06445 62.8293 2.07456 56.4579C0.639972 51.8645 -0.0177622 47.6782 0.000364374 42.866C0.0119059 39.802 1.01223 37.2235 2.15772 34.3817C3.35286 31.4167 4.55182 28.8468 6.6303 26.4179C10.1874 22.261 13.4014 18.6123 18.0795 15.7754C25.4953 11.2781 32.442 8.27651 40.7345 5.73599C50.0004 2.89723 58.2793 1.44548 67.9246 0.50462C75.4619 -0.230616 82.0808 -0.233931 89.557 0.973567C102.293 3.03055 112.956 6.19555 125.35 9.77939C130.359 11.228 134.521 12.9795 139.179 15.3232C149.845 20.6892 158.909 25.4925 169.064 31.7723C172.864 34.1223 175.967 36.5345 178.912 39.8948C186.305 48.3326 192.46 55.8197 198.449 65.3066C201.758 70.5489 205.623 78.5176 210.044 89.2124L223.331 112.227C226.04 121.531 227.804 128.752 228.623 133.891C229.833 141.495 230.729 148.142 230.273 155.828C229.928 161.623 228.546 166.569 226.362 171.948C224.108 177.5 221.535 182.105 217.726 186.73C213.45 191.923 208.738 195.43 203.524 199.68C200.831 201.875 198.323 203.567 195.2 205.089C185.835 209.652 177.516 212.939 167.932 217.021C163.771 218.794 160.2 220.316 155.933 221.813C145.143 225.6 135.751 228.423 124.929 232.115C120.549 233.609 116.824 234.974 112.502 236.627C108.239 238.258 104.593 239.686 100.403 241.495C96.5223 243.171 93.2518 244.735 89.4496 246.581C85.982 248.265 83.0479 249.787 79.6352 251.579C76.4262 253.264 73.6783 254.717 70.5318 256.517C67.4489 258.279 64.727 259.684 61.8414 261.754C57.6375 264.77 54.1954 267.588 50.3204 271.016C47.7254 273.311 45.482 275.322 43.3861 278.08C39.0906 283.735 35.2923 288.603 32.1302 294.961C29.1554 300.942 27.5803 306.546 26.0012 313.037C24.4926 319.239 23.5669 324.7 23.3443 331.079C23.1684 336.121 23.4987 340.557 24.8715 345.412C26.9597 352.796 29.3328 359.056 33.1397 365.72C36.0598 370.831 41.0416 377.605 48.0851 386.043L35.4356 364.134C41.8469 370.265 46.8553 374.897 50.4609 378.027C55.9081 382.757 60.498 386.955 66.4364 391.051C79.9806 400.394 91.9698 407.851 106.047 416.369C110.926 419.321 115.257 421.67 120.549 423.794C131.083 428.021 140.146 431.769 151.168 434.477C168.131 438.646 183.018 440.668 200.273 443.386C206.036 444.293 211.047 444.663 216.878 444.827C230.503 445.21 242.261 446.322 255.822 444.947C266.076 443.908 274.711 441.402 284.434 437.981C293.294 434.862 300.667 431.349 308.628 426.363C314.48 422.697 319.015 418.668 323.562 413.472C329.899 406.23 334.509 399.297 339.506 391.074C344.209 383.336 347.877 376.419 351.2 367.996C355.684 356.627 359.295 346.682 361.741 334.708C365.836 314.662 368.73 297.243 369.825 276.811C370.5 264.224 369.804 246.23 367.738 222.829L377.481 239.705C378.97 262.407 379.351 279.855 378.623 292.05C377.394 312.657 374.614 330.219 370.87 350.52C368.562 363.032 365.329 373.517 361.368 385.608C358.376 394.74 355.358 402.464 351.039 411.049C346.547 419.975 342.5 427.67 336.271 435.484C331.969 440.881 327.18 444.699 321.314 448.336C313.327 453.289 305.934 456.782 297.038 459.812C287.241 463.147 278.524 465.481 268.217 466.416C254.577 467.654 242.776 466.443 229.088 465.976C223.253 465.777 218.242 465.399 212.471 464.514C195.289 461.879 180.441 460.045 163.552 455.928C152.484 453.23 143.411 449.391 132.855 445.108C127.532 442.948 123.209 440.511 118.281 437.558C104.355 429.215 92.4341 422.006 79.0254 412.856C73.0853 408.803 68.5193 404.602 63.0847 399.892C59.4848 396.773 54.485 392.156 48.0851 386.043L35.4356 364.134C28.2673 355.48 23.1899 348.539 20.2033 343.313C16.3138 336.507 13.8715 330.125 11.6971 322.593C10.267 317.639 9.83893 313.114 9.99704 307.96C10.1921 301.605 11.1595 296.164 12.6973 289.994C14.3009 283.56 15.9637 278.032 18.9336 272.104C22.1197 265.743 25.8583 260.828 30.1497 255.154C32.2392 252.392 34.4935 250.393 37.0903 248.101C40.9687 244.678 44.3989 241.844 48.6196 238.853C51.5168 236.801 54.2743 235.459 57.3746 233.728C60.5402 231.96 63.2757 230.482 66.5183 228.86C69.9733 227.132 72.9833 225.748 76.5049 224.16C80.3683 222.418 83.6974 220.962 87.6156 219.347C91.8408 217.606 95.492 216.184 99.7683 214.572C104.099 212.939 107.829 211.583 112.205 210.077C123.009 206.361 132.377 203.489 143.138 199.652C147.393 198.134 150.969 196.629 155.093 194.784C164.58 190.539 172.757 186.976 182.018 182.257C185.114 180.68 187.671 179.064 190.331 176.828C195.506 172.48 200.097 168.791 204.322 163.514C208.079 158.821 210.642 154.205 212.901 148.634C215.074 143.276 216.503 138.367 216.86 132.596C217.334 124.936 216.439 118.308 215.248 110.725C214.446 105.624 212.712 98.4525 210.044 89.2124L223.331 112.227C218.726 101.205 214.717 92.9868 211.304 87.5721C205.305 78.0556 199.131 70.5494 191.723 62.0842C188.769 58.7088 185.647 56.2989 181.848 53.9152C171.584 47.4767 162.453 42.4818 151.67 36.9578C147.011 34.5712 142.836 32.7951 137.805 31.3525C125.459 27.8129 114.816 24.7695 102.132 22.7547C94.6448 21.5653 88.0181 21.4649 80.477 22.246C70.8785 23.2402 62.638 24.7833 53.4703 27.7952C45.2523 30.4951 38.4361 33.755 31.1681 38.4456C26.5427 41.4308 23.4243 45.1951 19.9249 49.4448C17.8833 51.9241 16.6685 54.4913 15.4939 57.4806C14.3627 60.3594 13.4279 62.972 13.3942 66.0649C13.3434 70.739 13.8982 74.8172 15.2566 79.2898C17.1271 85.4483 20.4491 94.0219 25.2228 105.011L12.5581 83.0746C20.8939 97.2433 27.8458 107.745 33.4138 114.581C42.7895 126.09 51.8616 135.156 62.9885 144.983C77.0954 157.442 90.3414 166.749 105.347 178.109C109.916 181.567 114.097 184.167 118.892 187.302C131.286 195.405 141.944 202.297 154.456 210.217C164.517 216.585 173.55 221.408 183.382 228.124C196.297 236.947 206.858 245.233 219.399 254.58C223.393 257.558 226.672 260.3 230.623 263.335C234.724 266.485 238.276 269.137 242.404 272.251C246.565 275.391 250.134 278.08 254.308 281.204C258.614 284.427 262.326 287.161 266.63 290.386C273.109 295.24 278.578 299.515 285.117 304.288C291.443 308.905 297.007 312.665 303.385 317.211C310.21 322.074 316.1 326.189 322.839 331.171C326.674 334.005 329.967 336.437 333.59 339.537C334.381 340.214 334.811 341.04 335.386 341.908C335.476 342.044 335.548 342.265 335.602 342.572L335.602 342.572C335.602 342.572 338.037 346.789 342.907 355.224Z"/>
</svg>
