<?xml version="1.0" standalone="no"?>
<!DOCTYPE svg PUBLIC "-//W3C//DTD SVG 20010904//EN" "http://www.w3.org/TR/2001/REC-SVG-20010904/DTD/svg10.dtd">
<!-- Created using Krita: https://krita.org -->
<svg xmlns="http://www.w3.org/2000/svg" 
    xmlns:xlink="http://www.w3.org/1999/xlink"
    xmlns:krita="http://krita.org/namespaces/svg/krita"
    xmlns:sodipodi="http://sodipodi.sourceforge.net/DTD/sodipodi-0.dtd"
    width="992pt"
    height="600pt"
    viewBox="0 0 992 600">
<defs/>
<path id="shape0" transform="translate(369.322481808736, 149.308388497188)" fill="#000000" d="M7.3275 12.6916C2.4425 4.23053 3.9268e-7 -2.26714e-7 -4.46995e-15 7.45931e-15C0.15407 0.0274711 0.27307 0.0430596 0.357 0.0467654C3.38011 0.180246 5.97309 0.254305 8.99578 0.397194C14.2108 0.643722 18.7284 0.395489 23.8931 1.15937C27.5054 1.69364 30.4328 2.96231 33.9085 4.08189C35.4109 4.56583 36.6742 5.06719 38.1035 5.73677C40.3337 6.78151 42.2123 7.75303 44.3512 8.97384C45.8833 9.84832 47.1496 10.6838 48.5799 11.7164C50.5854 13.1643 52.3933 14.3224 54.1589 16.0547C56.9464 18.7894 59.2131 21.286 61.5345 24.426C62.9031 26.2773 64.5934 29.0985 66.6052 32.8899L80.5962 57.123C82.4254 60.8959 83.7726 63.8244 84.6378 65.9083C85.2642 67.4173 85.6063 68.7843 86.0858 70.3463C86.5627 71.8998 86.9759 73.2316 87.3698 74.8082C87.7579 76.3613 88.032 77.7075 88.3186 79.2825C88.6024 80.8429 88.6834 82.2083 88.9989 83.7626C89.3199 85.344 89.7618 86.6609 90.1349 88.2308C90.5075 89.7981 90.8254 91.143 91.1291 92.7251C91.4298 94.2911 91.6404 95.6426 91.8611 97.2218C92.0804 98.791 92.1602 100.15 92.3859 101.718C92.5989 103.198 92.9044 104.446 93.1141 105.926C93.5145 108.751 93.8248 111.179 94.1289 114.016C94.286 115.482 94.3415 116.746 94.4314 118.218C94.523 119.717 94.583 121.004 94.6473 122.504C94.7124 124.026 94.7553 125.33 94.8013 126.852C94.8477 128.388 94.8784 129.706 94.9112 131.242C94.9443 132.79 95.0506 134.118 94.9897 135.665C94.9284 137.224 94.8627 138.572 94.5627 140.104C93.9694 143.133 93.3353 145.71 92.4437 148.665C91.9633 150.257 91.3918 151.577 90.6522 153.066C89.8174 154.747 88.9181 156.09 87.9565 157.702C86.5631 160.037 85.3527 162.029 83.9239 164.343C82.4658 166.705 81.4178 168.874 79.7086 171.06C72.9266 179.737 66.9749 187.076 59.6955 195.34C53.7939 202.04 47.8985 207.018 42.0735 213.785C38.1353 218.36 35.0853 222.579 31.8562 227.68C29.7899 230.943 28.1765 233.911 27.0014 237.59C25.4093 242.576 24.341 247.018 24.0121 252.241C23.7414 256.542 24.0935 260.35 25.3083 264.484C26.1937 267.498 28.1476 271.537 31.1699 276.603L17.5153 252.952C19.2145 255.46 20.6309 257.294 21.7643 258.455C25.4169 262.195 28.6953 265.276 32.7611 268.562C35.3524 270.656 37.7396 272.297 40.7242 273.777C43.9899 275.397 47.0043 276.339 50.5029 277.363C55.7789 278.908 60.4105 279.828 65.7575 281.105C71.5443 282.487 76.4625 283.88 82.3131 284.96C90.6379 286.497 97.8169 287.623 106.228 288.577C111.959 289.227 116.918 289.244 122.677 289.539C124.903 289.652 126.813 289.703 129.041 289.742C132.225 289.798 134.962 290.019 138.139 289.81C142.334 289.535 145.981 289.371 150.061 288.362C153.225 287.58 155.774 286.295 158.639 284.742C160.98 283.474 162.913 282.176 164.85 280.349C166.611 278.688 167.919 277.004 169.089 274.885C170.552 272.236 171.324 269.722 172.301 266.858C172.788 265.43 172.974 264.136 173.262 262.655C173.551 261.164 173.823 259.883 173.949 258.369C174.301 254.144 174.599 250.513 174.626 246.273C174.636 244.564 174.432 243.091 174.055 241.424C173.216 237.724 172.645 234.468 171.159 230.977C169.748 227.661 167.302 223.131 163.823 217.386C169.737 227.82 174.35 235.81 177.661 241.355C178.159 242.188 177.568 240.933 175.888 237.589L161.781 213.154C161.55 212.44 161.423 211.884 161.4 211.486C161.374 211.031 161.373 210.59 161.611 210.201C161.78 209.923 162.124 209.705 162.44 209.782C163.418 210.021 164.281 210.362 165.031 211.035C166.712 212.546 168.018 214.026 169.264 215.912C171.067 218.64 173.402 222.686 176.27 228.048L190.091 251.988C192.104 257.469 193.448 261.74 194.124 264.8C195.211 269.715 195.24 274.084 196.074 279.048C196.472 281.422 196.861 283.468 197.641 285.746C197.988 286.762 198.696 288.123 199.763 289.83L185.778 265.606C187.612 268.207 189.178 270.053 190.475 271.143C193.411 273.609 196.227 275.381 199.595 277.213C202.142 278.6 204.517 279.434 207.288 280.292C211.354 281.551 214.928 282.333 219.086 283.247C220.682 283.597 222.087 283.703 223.709 283.9C225.312 284.095 226.689 284.227 228.298 284.367C229.893 284.507 231.262 284.617 232.861 284.702C238.538 285.003 243.413 285.093 249.085 285.472C251.29 285.62 253.155 286.016 255.358 286.204C263.307 286.884 270.122 287.462 278.085 287.95C285.179 288.385 291.264 288.858 298.371 288.842C307.263 288.823 314.937 288.976 323.758 287.851C329.383 287.134 334.098 285.635 339.395 283.611C341.577 282.777 343.21 281.435 344.866 279.786C347.085 277.577 348.743 275.402 350.343 272.71C351.843 270.187 352.874 267.835 353.654 265.005C354.16 263.167 354.268 261.449 353.963 259.568C353.286 255.388 352.512 251.777 350.879 247.87C349.402 244.336 346.791 239.528 343.045 233.446L356.787 257.246C350.961 250.014 346.423 244.5 343.172 240.702C341.105 238.288 339.094 236.436 336.956 234.085C335.458 232.437 334.231 230.974 332.788 229.278C331.376 227.62 330.266 226.111 328.799 224.501C325.302 220.663 322.359 217.31 318.609 213.717C314.287 209.575 310.299 206.33 305.761 202.425C302.95 200.005 300.347 198.156 297.615 195.649C288.993 187.737 281.671 180.876 273.333 172.666C271.48 170.842 270.068 169.096 268.522 167.005C266.237 163.916 264.278 161.244 262.404 157.89C260.523 154.522 258.099 149.572 255.134 143.04L241.532 119.48C240.365 116.572 239.518 114.317 238.992 112.714C237.83 109.173 237.052 106.07 235.96 102.506C235.287 100.31 234.5 98.4897 233.948 96.2603C232.52 90.4851 231.082 85.5557 230.31 79.657C229.376 72.5185 229.145 66.3229 229.087 59.1238C229.072 57.1802 229.503 55.513 230.101 53.6637C230.999 50.888 231.768 48.4415 233.339 45.9829C235.135 43.1714 236.98 40.8611 239.599 38.7947C243.71 35.5515 247.66 33.2957 252.356 30.9795C259.339 27.5351 265.491 24.8516 272.876 22.382C278.104 20.6335 282.806 19.8212 288.254 18.9745C292.284 18.3481 295.81 17.9218 299.88 18.1848C304.983 18.5145 309.309 19.4528 314.279 20.6559C318.234 21.6134 321.445 23.0584 325.307 24.3404C326.939 24.8821 328.347 25.3181 329.977 25.8666C331.623 26.4207 333.03 26.9094 334.667 27.4907C336.22 28.0424 337.558 28.4997 339.092 29.1036C340.725 29.7466 342.086 30.3946 343.713 31.0522C346.123 32.0261 348.194 32.8469 350.626 33.7645C352.291 34.3927 353.733 34.8903 355.416 35.4681C356.67 35.8987 358.468 36.4962 360.809 37.2606L374.666 61.2628C372.358 60.58 370.589 60.0329 369.361 59.6215C367.661 59.0525 366.224 58.5052 364.546 57.8751C362.134 56.9693 360.07 56.1827 357.674 55.2334C356.056 54.5923 354.7 53.9674 353.08 53.3316C351.536 52.7253 350.195 52.2513 348.636 51.6851C346.986 51.0862 345.576 50.5604 343.912 50.0027C342.303 49.4633 340.897 49.0825 339.285 48.5512C335.412 47.2744 332.206 45.7881 328.24 44.837C323.292 43.6505 318.975 42.7951 313.897 42.4631C309.806 42.1957 306.264 42.5722 302.203 43.1348C296.704 43.8965 291.956 44.6097 286.649 46.2378C279.175 48.5307 272.841 50.8628 265.818 54.2972C261.108 56.6009 257.323 59.168 253.31 62.5426C250.732 64.7103 248.949 67.0956 247.185 69.9651C245.649 72.4645 244.886 74.9205 243.986 77.7128C243.394 79.5482 242.929 81.1947 242.943 83.1231C242.999 90.3347 243.265 96.5381 244.186 103.691C244.935 109.51 246.318 114.379 247.701 120.081C248.234 122.274 249.003 124.066 249.655 126.226C250.708 129.72 251.441 132.766 252.572 136.235C253.097 137.848 253.951 140.116 255.134 143.04L241.532 119.48C244.49 126 246.908 130.941 248.786 134.303C250.661 137.658 252.621 140.331 254.906 143.422C256.457 145.519 257.87 147.274 259.729 149.103C268.056 157.298 275.375 164.136 283.982 172.036C286.732 174.56 289.328 176.449 292.165 178.875C296.633 182.697 300.593 185.832 304.851 189.887C308.602 193.458 311.532 196.808 315.021 200.636C316.493 202.251 317.604 203.764 319.018 205.429C320.471 207.14 321.702 208.62 323.213 210.28C325.331 212.608 327.337 214.43 329.384 216.821C332.649 220.635 337.203 226.176 343.045 233.446L356.787 257.246C360.529 263.334 363.142 268.144 364.624 271.678C366.302 275.675 367.141 279.359 367.858 283.635C368.173 285.51 368.059 287.229 367.541 289.059C366.748 291.858 365.699 294.182 364.169 296.657C362.537 299.298 360.85 301.425 358.585 303.549C356.885 305.142 355.187 306.391 352.982 307.146C347.569 308.999 342.759 310.266 337.073 310.913C328.228 311.921 320.556 311.671 311.655 311.852C304.733 311.992 298.791 312.124 291.874 311.833C283.896 311.497 277.084 310.755 269.13 310.059C266.921 309.866 265.055 309.402 262.839 309.296C257.26 309.028 252.467 309.167 246.884 308.991C245.282 308.94 243.913 308.791 242.316 308.648C240.705 308.503 239.324 308.367 237.719 308.166C236.092 307.962 234.681 307.859 233.083 307.491C228.883 306.521 225.284 305.652 221.176 304.347C218.409 303.467 216.033 302.635 213.477 301.259C210.149 299.466 207.348 297.758 204.444 295.337C203.148 294.258 201.588 292.422 199.763 289.83L185.778 265.606C184.708 263.896 183.998 262.532 183.65 261.513C182.87 259.235 182.477 257.19 182.082 254.814C181.264 249.884 181.248 245.545 180.187 240.66C179.533 237.649 178.228 233.445 176.27 228.048L190.091 251.988C187.315 246.78 185.049 242.855 183.294 240.213C182.115 238.436 180.874 237.038 179.247 235.659C178.566 235.081 177.737 234.923 176.859 234.756C176.531 234.694 176.172 234.786 175.947 235.032C175.68 235.324 175.628 235.717 175.619 236.112C175.611 236.462 175.7 236.955 175.888 237.589L161.781 213.154C162.604 215.02 163.285 216.43 163.823 217.386C166.992 223.013 171.605 231.002 177.661 241.355C181.125 247.08 183.561 251.595 184.97 254.897C186.49 258.462 187.106 261.777 187.985 265.552C188.378 267.242 188.597 268.736 188.597 270.472C188.598 274.751 188.321 278.418 187.987 282.684C187.868 284.201 187.593 285.484 187.305 286.978C187.019 288.461 186.838 289.758 186.347 291.186C185.366 294.039 184.593 296.547 183.113 299.175C181.932 301.272 180.62 302.948 178.82 304.546C176.835 306.308 174.803 307.437 172.441 308.648C169.54 310.137 167.01 311.461 163.841 312.23C159.75 313.223 156.096 313.365 151.895 313.636C148.72 313.84 145.987 313.64 142.806 313.585C140.575 313.546 138.662 313.483 136.433 313.365C130.667 313.058 125.695 313.083 119.965 312.37C111.453 311.311 104.213 309.962 95.7947 308.311C89.935 307.162 85.0268 305.654 79.1937 304.377C74.0373 303.248 69.5124 302.757 64.4016 301.436C60.935 300.541 57.9515 299.654 54.7447 298.062C51.6886 296.544 49.2841 294.796 46.6532 292.624C42.4975 289.191 39.1595 285.972 35.414 282.097C34.2882 280.932 32.8736 279.1 31.1699 276.603L17.5153 252.952C14.4371 247.806 12.4458 243.702 11.5411 240.639C10.3267 236.528 10.032 232.735 10.2794 228.455C10.5863 223.146 11.5473 218.611 13.1084 213.527C14.2465 209.821 15.8247 206.811 17.9268 203.553C21.1741 198.521 24.3811 194.472 28.3177 189.959C34.1901 183.227 40.0457 178.205 45.9132 171.468C53.1693 163.137 59.0373 155.691 65.7843 146.943C67.4786 144.746 68.5374 142.588 70.0033 140.232C71.4353 137.931 72.6975 135.979 74.064 133.639C75.0283 131.988 75.8374 130.558 76.6601 128.831C77.3755 127.33 77.9762 126.024 78.4522 124.431C79.3395 121.461 79.9601 118.869 80.5455 115.825C80.8412 114.287 80.9045 112.935 80.9636 111.371C81.0221 109.821 80.9158 108.492 80.8811 106.942C80.8466 105.401 80.8143 104.081 80.7656 102.541C80.7173 101.015 80.6722 99.7062 80.6039 98.1805C80.5364 96.6734 80.4733 95.3817 80.3775 93.876C80.2833 92.3957 80.2216 91.1244 80.0611 89.6498C79.7514 86.8054 79.4297 84.3733 79.0345 81.5394C78.8325 80.0908 78.5569 78.8647 78.355 77.416C78.1365 75.8488 78.0513 74.4924 77.8335 72.9251C77.6146 71.3498 77.406 70.0015 77.1077 68.4393C76.8065 66.8618 76.4934 65.5204 76.1211 63.9582C75.7445 62.3774 75.2928 61.0529 74.9681 59.4606C74.652 57.9096 74.5743 56.5465 74.2926 54.9889C74.0088 53.4196 73.7379 52.0781 73.3532 50.5306C72.9628 48.9605 72.5533 47.6339 72.0796 46.0869C71.6022 44.5277 71.2611 43.1633 70.6363 41.657C69.7736 39.5773 68.4299 36.655 66.6052 32.8899L80.5962 57.123C78.5822 53.326 76.8897 50.5008 75.5187 48.6474C73.2102 45.5268 70.9439 43.0573 68.1771 40.3349C66.3752 38.5618 64.5589 37.3382 62.5143 35.8515C61.1042 34.8261 59.8383 34.0206 58.3186 33.1661C56.1939 31.9714 54.3279 31.0229 52.1139 30.0034C50.6914 29.3483 49.4344 28.8598 47.9413 28.3874C44.4767 27.2913 41.5611 26.0206 37.9611 25.5258C32.8367 24.8216 28.3645 25.0286 23.1921 24.986C20.3077 24.9623 17.8394 25.2024 14.958 25.3364C14.8865 25.3398 14.7855 25.3554 14.655 25.3832L14.655 25.3832C14.655 25.3832 12.2125 21.1527 7.3275 12.6916Z"/><path id="shape1" transform="translate(131.155680617478, 146.308388312948)" fill="#000000" d="M254.194 12.6916C259.079 21.1527 261.522 25.3832 261.522 25.3832L260.992 25.2975C259.303 25.1029 258.002 25.008 257.088 25.0128C252.38 25.0376 248.321 24.8687 243.641 25.3886C237.972 26.0183 233.183 27.0997 227.604 28.2882C224.49 28.9516 221.901 29.8526 218.825 30.6752C217.035 31.154 215.497 31.5506 213.7 32.0062C211.912 32.4597 210.364 32.7892 208.584 33.2725C206.836 33.7469 205.344 34.1797 203.622 34.7417C201.916 35.2987 200.495 35.8954 198.794 36.4685C197.153 37.0215 195.689 37.3279 194.076 37.9586C189.279 39.835 185.249 41.6436 180.495 43.6265C178.608 44.4134 176.976 45.0521 175.104 45.8725C173.38 46.6277 171.949 47.3778 170.223 48.1274C168.528 48.8634 167.023 49.3706 165.333 50.1158C163.679 50.8445 162.318 51.5902 160.672 52.3368C159.093 53.0537 157.671 53.5193 156.12 54.2965C152.422 56.1493 149.207 57.6747 145.687 59.846C140.834 62.8395 136.665 65.4459 132.231 69.0315C128.971 71.6678 126.686 74.5002 123.803 77.5435C122.699 78.7082 121.842 79.7889 120.846 81.0469C119.828 82.3319 118.937 83.4256 118.052 84.8055C116.719 86.8838 115.687 88.7359 114.521 90.9118C113.7 92.4429 113.038 93.782 112.378 95.3892C111.346 97.903 110.523 100.086 109.693 102.674C109.134 104.414 108.94 105.987 108.416 107.738C107.597 110.47 106.707 112.752 105.857 115.474C105.305 117.242 104.913 118.783 104.41 120.566C103.875 122.463 103.425 124.091 102.89 125.989C102.342 127.928 101.89 129.596 101.315 131.527C100.415 134.55 99.4227 137.079 98.6746 140.143C97.3033 145.759 95.9362 150.562 95.2649 156.303C94.1707 165.662 94.0159 173.76 93.6435 183.175C93.361 190.318 93.4654 196.45 93.394 203.598C93.3565 207.358 93.2066 210.583 93.3325 214.341C93.5193 219.918 93.7866 224.698 94.2869 230.255C94.4452 232.014 94.8601 233.484 95.2115 235.215C95.7311 237.773 96.0035 240.014 96.7753 242.507C98.8821 249.314 100.707 255.163 103.424 261.75C104.146 263.498 105.532 265.818 107.583 268.708C101.583 258.294 96.96 250.286 93.7145 244.687C93.0836 243.598 93.9714 245.161 96.3778 249.375L110.284 273.462C111.54 275.438 112.426 276.998 112.941 278.143C114.372 281.327 115.444 284.13 116.567 287.435C117.097 288.996 117.325 290.403 117.655 292.018C117.978 293.603 118.309 294.961 118.43 296.574C118.955 303.507 119.243 309.462 119.499 316.409C119.559 318.052 119.536 319.472 119.332 321.103C118.936 324.273 118.609 327.011 117.786 330.098C116.918 333.354 115.908 336.083 114.52 339.153C113.947 340.423 113.235 341.447 112.225 342.406C110.819 343.738 109.486 344.83 107.713 345.61C105.079 346.768 102.606 347.199 99.8064 347.864C98.2525 348.234 96.8906 348.46 95.2967 348.562C92.079 348.767 89.3101 348.789 86.0862 348.739C82.5877 348.685 79.5437 348.888 76.1005 348.266C69.2955 347.037 63.5258 345.56 56.9331 343.473C51.8809 341.873 47.5799 340.267 42.9118 337.758C37.8481 335.037 33.968 331.924 29.2723 328.608C27.7362 327.523 26.4505 326.526 25.1226 325.194C23.0684 323.135 21.4584 321.218 19.6395 318.948C18.2601 317.227 16.3882 314.691 14.0238 311.342L-2.60209e-16 287.052L14.0238 311.342L-2.60209e-16 287.052C2.42027 290.506 4.33774 293.12 5.7524 294.895C7.57049 297.176 9.18671 299.096 11.2468 301.161C12.5671 302.484 13.851 303.468 15.3796 304.545C20.0698 307.847 23.9459 310.947 28.9996 313.661C33.6738 316.172 37.9704 317.806 43.0322 319.396C49.5972 321.458 55.3539 322.868 62.1297 324.068C65.5759 324.678 68.6182 324.503 72.1178 324.545C75.329 324.585 78.0865 324.526 81.2901 324.302C82.8812 324.19 84.2477 323.991 85.791 323.589C88.555 322.868 90.9664 322.29 93.5637 321.102C95.323 320.297 96.6718 319.251 98.1072 317.954C99.1235 317.035 99.9027 316.085 100.487 314.846C101.914 311.818 102.927 309.105 103.799 305.873C104.633 302.785 104.936 300.038 105.338 296.864C105.543 295.249 105.592 293.843 105.531 292.216C105.267 285.237 104.948 279.256 104.411 272.292C104.288 270.686 103.965 269.333 103.646 267.754C103.322 266.15 103.098 264.754 102.576 263.204C101.48 259.948 100.436 257.185 99.0307 254.05C98.5177 252.906 97.6334 251.347 96.3778 249.375L110.284 273.462C109.12 271.399 108.22 269.814 107.583 268.708C104.354 263.1 99.7307 255.092 93.7145 244.687C91.6595 241.787 90.2693 239.461 89.5437 237.708C86.7865 231.047 84.9086 225.141 82.7735 218.256C82.0176 215.818 81.7973 213.618 81.2975 211.115C80.9484 209.367 80.5042 207.888 80.3483 206.113C79.8642 200.603 79.644 195.862 79.4718 190.334C79.3546 186.568 79.484 183.337 79.5217 179.57C79.5931 172.429 79.4993 166.304 79.7835 159.168C80.1586 149.754 80.2981 141.654 81.4048 132.297C82.0808 126.582 83.4931 121.811 84.8632 116.221C85.6177 113.143 86.5819 110.591 87.4707 107.549C88.0387 105.605 88.4825 103.926 89.0253 101.975C89.5551 100.071 90.0123 98.4394 90.5351 96.5333C91.0311 94.7249 91.3816 93.1535 91.936 91.3622C92.7762 88.6481 93.715 86.3916 94.5179 83.6662C95.044 81.8808 95.1671 80.2624 95.7292 78.4879C96.5453 75.9116 97.419 73.76 98.4475 71.261C99.1126 69.645 99.7508 68.2857 100.565 66.7393C101.719 64.5453 102.738 62.6756 104.067 60.5822C104.945 59.1976 105.843 58.1074 106.858 56.8197C107.853 55.558 108.707 54.4731 109.806 53.3012C112.679 50.2381 114.922 47.3527 118.199 44.727C122.645 41.1645 126.893 38.6858 131.755 35.7152C135.283 33.5592 138.451 31.9488 142.146 30.0943C143.7 29.3148 145.143 28.8929 146.736 28.198C148.394 27.4747 149.775 26.7647 151.434 26.0431C153.128 25.3067 154.609 24.7459 156.312 24.033C158.054 23.3041 159.548 22.6815 161.277 21.9239C163.143 21.1064 164.712 20.3358 166.584 19.5329C171.317 17.5037 175.358 15.7255 180.147 13.8327C181.755 13.197 183.21 12.8671 184.848 12.3137C186.55 11.7388 187.979 11.1599 189.689 10.6092C191.414 10.0536 192.908 9.62073 194.659 9.15399C196.445 8.67805 197.994 8.34242 199.792 7.91666C201.609 7.48651 203.177 7.16035 204.988 6.70854C208.088 5.93559 210.693 5.05925 213.822 4.41761C219.421 3.26961 224.246 2.38796 229.906 1.59905C234.417 0.970336 238.325 0.785589 242.861 0.370366C243.694 0.294068 244.886 0.199192 246.436 0.0857365L246.867 6.10623e-15L246.867 6.10623e-15C246.867 -2.26714e-7 249.309 4.23053 254.194 12.6916Z"/><path id="shape2" transform="translate(222.322489444413, 297.808380783596)" fill="#000000" d="M7.3275 12.6916C2.4425 4.23053 3.9268e-7 -2.26714e-7 -4.46995e-15 -2.09624e-14C0.154666 0.0205296 0.273666 0.0361181 0.357 0.0467654C0.998682 0.128751 1.57627 0.0769602 2.19052 0.279875C3.48162 0.706382 4.5248 1.24607 5.75307 1.82933C7.0311 2.43622 8.07483 3.06069 9.3476 3.67851C11.0197 4.49018 12.4708 5.14906 14.1653 5.91275C15.7383 6.62163 17.1057 7.186 18.6828 7.88559C21.112 8.96316 23.1281 10.0453 25.6119 10.9903C28.7216 12.1734 31.436 13.0718 34.643 13.9576C36.3542 14.4303 37.8893 14.5338 39.6337 14.8633C41.3491 15.1873 42.8094 15.5184 44.5281 15.8246C46.1968 16.1219 47.6316 16.354 49.3105 16.5872C50.9519 16.8153 52.3641 16.9742 54.0127 17.1424C55.636 17.308 57.0394 17.3309 58.6575 17.5406C66.4262 18.5475 73.0531 19.6513 80.827 20.6177C82.4613 20.8209 83.8801 20.8012 85.5251 20.8806C87.1491 20.959 88.5418 21.0118 90.1667 21.0684C91.7768 21.1245 93.1571 21.1726 94.7679 21.2026C105.372 21.4002 114.46 21.5861 125.065 21.7189C129.525 21.7747 133.348 21.7628 137.807 21.7413C145.676 21.7033 152.42 21.593 160.288 21.5488C161.926 21.5396 163.329 21.5844 164.967 21.5888C168.456 21.5981 171.452 21.7771 174.936 21.588C176.972 21.4775 179.865 21.1404 183.615 20.5767L197.658 44.8998C193.875 45.3968 190.959 45.6938 188.91 45.7908C185.423 45.9557 182.428 45.7782 178.937 45.7857C177.315 45.7892 175.924 45.834 174.302 45.8222C166.347 45.7643 159.529 45.6462 151.574 45.5864C147.113 45.5528 143.289 45.5659 138.827 45.5553C128.313 45.5304 119.301 45.5502 108.787 45.485C107.174 45.4749 105.792 45.4009 104.18 45.3404C102.552 45.2794 101.157 45.2224 99.5301 45.1378C97.8807 45.0521 96.4588 45.057 94.8197 44.8539C87.0533 43.8913 80.43 42.8108 72.6687 41.8086C71.0463 41.5991 69.6401 41.5656 68.0135 41.3924C66.3592 41.2163 64.9423 41.0495 63.2959 40.8107C61.6092 40.5661 60.1688 40.3193 58.4925 40.0116C56.7696 39.6953 55.3062 39.3545 53.5852 39.028C51.8443 38.6977 50.3094 38.6082 48.6018 38.135C45.3875 37.2443 42.6729 36.3242 39.5547 35.14C37.0829 34.2012 35.0631 33.1557 32.6494 32.0764C31.0456 31.3592 29.6871 30.7083 28.0763 30.0072C26.4584 29.3031 25.0427 28.7671 23.4253 28.0618C22.21 27.5318 21.2172 26.9654 19.9841 26.4783C18.8579 26.0334 17.8764 25.6716 16.6956 25.4033C16.1021 25.2685 15.5666 25.3424 14.958 25.3364C14.8865 25.3357 14.7855 25.3513 14.655 25.3832L14.655 25.3832C14.655 25.3832 12.2125 21.1527 7.3275 12.6916Z"/>
</svg>
