<?xml version="1.0" standalone="no"?>
<!DOCTYPE svg PUBLIC "-//W3C//DTD SVG 20010904//EN"
 "http://www.w3.org/TR/2001/REC-SVG-20010904/DTD/svg10.dtd">
<svg version="1.0" xmlns="http://www.w3.org/2000/svg"
 width="908.000000pt" height="248.000000pt" viewBox="0 0 908.000000 248.000000"
 preserveAspectRatio="xMidYMid meet">
<metadata>
Created by potrace 1.16, written by Peter Selinger 2001-2019
</metadata>
<g transform="translate(0.000000,248.000000) scale(0.100000,-0.100000)"
fill="#000000" stroke="none">
<path d="M6947 2242 c-24 -26 -22 -29 27 -81 27 -30 49 -67 61 -102 24 -74
103 -255 133 -304 14 -22 67 -80 118 -130 78 -76 93 -96 99 -130 3 -22 9 -53
11 -70 3 -16 21 -77 39 -135 66 -203 79 -321 51 -464 -12 -60 -18 -72 -55
-105 -65 -56 -35 -88 74 -79 33 2 44 10 73 48 43 57 52 60 52 17 0 -72 56 -86
341 -87 280 0 364 18 497 109 70 47 107 92 152 180 51 103 60 169 57 428 -2
216 -1 230 20 275 47 100 134 168 218 168 38 0 45 3 45 19 0 11 -11 33 -25 49
-14 17 -25 37 -25 46 0 11 -21 27 -57 44 -53 24 -69 27 -173 27 -106 -1 -119
-3 -169 -28 -105 -55 -175 -154 -191 -269 -9 -63 2 -196 20 -244 46 -121 71
-422 41 -509 -28 -83 -105 -162 -129 -132 -5 6 -12 84 -16 172 -7 181 -19 265
-48 345 -42 118 -102 187 -224 258 -40 23 -84 56 -98 73 -23 27 -26 39 -26
108 0 98 -21 177 -70 269 -22 40 -47 101 -55 135 -30 119 -51 134 -75 54 -16
-55 -37 -77 -73 -77 -19 0 -42 -11 -65 -31 -20 -17 -52 -38 -71 -46 -20 -9
-39 -20 -43 -27 -14 -20 -8 -66 12 -105 10 -21 16 -41 13 -45 -13 -12 -103 -5
-138 11 -24 12 -41 29 -52 57 -72 168 -189 326 -243 326 -9 0 -24 -8 -33 -18z"/>
<path d="M4585 1834 c-59 -134 -60 -134 -138 -70 -84 69 -104 76 -204 76 -93
0 -178 -21 -223 -53 -14 -10 -59 -38 -101 -62 -102 -59 -129 -105 -201 -340
-49 -164 -53 -309 -11 -460 26 -94 46 -129 85 -152 18 -11 59 -43 90 -71 44
-39 75 -56 137 -76 89 -29 131 -31 211 -12 107 26 149 59 223 181 87 144 111
196 95 206 -21 14 -27 11 -47 -28 -27 -53 -136 -155 -201 -188 -58 -30 -162
-64 -220 -72 -30 -4 -46 3 -100 39 -103 68 -131 150 -137 393 -9 352 -8 398
10 431 23 44 87 97 174 144 78 43 102 47 179 26 50 -13 62 -19 160 -82 166
-107 183 -240 42 -330 -21 -13 -52 -25 -69 -26 -28 -3 -37 3 -66 40 -39 51
-44 108 -14 158 37 61 131 49 131 -16 0 -15 -7 -36 -16 -45 -15 -15 -19 -14
-45 11 -34 33 -46 26 -32 -18 8 -30 12 -33 46 -31 21 1 46 7 57 13 24 13 36
70 23 113 -9 32 -10 32 -70 30 -136 -3 -192 -87 -135 -203 17 -35 33 -51 68
-68 53 -26 82 -23 154 13 79 41 105 78 125 180 10 50 22 101 27 115 11 30 41
300 34 308 -3 2 -21 -31 -41 -74z"/>
<path d="M1450 1893 c-58 -5 -311 -45 -370 -58 l-55 -12 28 -13 c15 -7 37 -28
48 -46 l20 -32 -21 -60 c-35 -101 -60 -192 -84 -312 -22 -106 -64 -260 -71
-260 -1 0 -24 64 -50 143 -26 78 -69 192 -96 253 -45 103 -49 117 -49 192 0
96 11 124 56 148 19 10 34 21 34 25 0 8 -167 22 -179 15 -5 -3 -82 -8 -172
-11 -90 -3 -186 -9 -214 -14 l-50 -7 59 -20 c47 -15 64 -27 90 -62 l31 -44 8
-306 c5 -169 9 -323 10 -342 2 -89 -12 -218 -27 -252 -12 -29 -27 -42 -66 -59
-59 -26 -66 -44 -12 -35 20 3 124 9 230 12 211 7 230 14 145 54 -122 56 -133
73 -173 259 -25 118 -25 207 -1 302 10 41 22 133 25 204 9 157 13 175 37 175
13 0 22 -13 33 -47 20 -63 66 -176 77 -188 5 -5 9 -16 9 -25 0 -9 23 -63 50
-119 28 -56 50 -107 50 -113 0 -13 89 -224 136 -321 18 -39 34 -82 34 -94 0
-35 18 -27 24 10 44 267 82 442 107 489 6 10 7 23 4 29 -4 5 5 29 19 54 14 24
26 50 26 57 0 19 82 208 91 208 8 0 15 -75 29 -315 6 -99 15 -214 20 -255 5
-41 7 -108 6 -147 -3 -88 -13 -101 -110 -148 -39 -18 -80 -41 -91 -49 -19 -15
-13 -16 75 -11 52 2 164 7 249 11 84 3 160 8 167 11 27 10 13 22 -49 42 -34
12 -79 34 -98 51 l-36 29 -7 158 c-5 87 -7 165 -6 173 1 8 5 132 8 275 6 215
10 265 24 290 17 31 56 71 98 98 l24 17 -29 -2 c-17 0 -46 -3 -65 -5z"/>
<path d="M5994 1728 c-2 -4 0 -9 6 -13 5 -3 24 -27 41 -52 30 -44 32 -49 36
-175 l5 -131 -50 42 c-62 53 -147 84 -205 75 -23 -4 -74 -21 -112 -39 -73 -33
-134 -90 -159 -150 -18 -42 -47 -212 -45 -260 3 -61 30 -197 44 -225 45 -85
171 -148 263 -130 107 20 172 63 244 162 17 22 17 21 18 -49 0 -39 4 -75 10
-78 9 -5 93 3 208 21 46 7 40 20 -18 34 -76 18 -96 39 -103 107 -3 32 -13 108
-21 168 -11 77 -14 155 -11 260 5 128 9 181 28 320 2 14 30 34 90 65 48 25 87
48 87 52 0 9 -350 5 -356 -4z m-41 -346 c56 -30 117 -107 117 -147 0 -35 -39
-71 -123 -114 -62 -31 -66 -32 -95 -17 -16 8 -32 22 -36 31 -9 24 35 105 61
111 33 9 56 -13 48 -45 -6 -25 -6 -25 14 -7 26 24 26 34 -1 63 -40 43 -93 25
-136 -48 -51 -84 -10 -149 93 -149 41 0 62 7 105 35 30 19 58 35 63 35 4 0 7
-42 7 -94 l0 -94 -39 -49 c-90 -113 -139 -143 -227 -143 -59 0 -103 33 -139
105 -27 54 -30 69 -30 155 1 91 3 99 46 195 97 216 144 247 272 177z"/>
<path d="M3341 1656 c-29 -46 -19 -95 21 -110 25 -9 28 -15 28 -52 l0 -42 -82
-8 c-46 -4 -89 -8 -95 -8 -31 -2 -8 -24 59 -56 99 -48 122 -81 115 -171 -2
-36 -11 -76 -20 -90 -14 -22 -15 -29 -2 -64 10 -29 13 -64 8 -130 -6 -95 -17
-126 -67 -189 l-30 -39 39 7 c22 3 85 13 140 22 55 8 101 17 104 20 3 2 -10
19 -29 37 -72 70 -83 141 -66 416 17 273 20 251 -27 251 l-38 0 3 47 c2 38 7
49 22 51 24 5 65 52 66 75 0 33 -45 67 -89 67 -34 0 -42 -5 -60 -34z"/>
<path d="M6634 1510 c-80 -26 -189 -116 -225 -187 -42 -84 -53 -135 -45 -229
10 -135 36 -190 146 -307 43 -46 64 -60 99 -68 83 -18 189 15 281 90 67 54 80
69 80 91 0 31 -18 24 -72 -26 -88 -82 -198 -115 -267 -80 -38 20 -77 80 -106
162 -34 95 -33 110 8 116 65 9 313 1 356 -11 23 -7 45 -10 48 -8 2 3 11 44 19
92 12 69 13 101 4 157 -17 115 -60 172 -155 207 -68 25 -92 25 -171 1z m177
-52 l39 -22 -1 -115 c-2 -132 -8 -171 -29 -182 -20 -10 -329 -34 -337 -26 -20
20 77 260 125 310 58 59 136 73 203 35z"/>
<path d="M4959 1501 c-139 -44 -240 -170 -255 -318 -7 -67 9 -202 33 -273 18
-55 43 -83 108 -125 114 -72 229 -89 313 -46 50 26 121 116 165 211 52 112 48
255 -10 393 -38 91 -71 121 -156 145 -109 31 -136 33 -198 13z m127 -61 c72
-31 96 -71 155 -252 48 -147 43 -189 -34 -310 -48 -73 -78 -99 -126 -105 -50
-7 -76 8 -175 105 -67 65 -74 77 -85 129 -17 85 -13 248 8 307 18 52 41 72 41
37 0 -34 56 -148 78 -160 48 -26 127 -4 149 41 17 33 25 84 18 108 -8 26 -73
44 -109 30 -29 -11 -34 -43 -12 -72 20 -26 26 -22 26 17 0 32 3 35 29 35 37 0
54 -20 45 -57 -9 -36 -21 -51 -56 -69 -43 -22 -79 0 -111 68 -30 64 -16 126
34 154 34 19 70 17 125 -6z"/>
<path d="M2000 1506 c-3 -2 -44 -6 -91 -9 -149 -8 -208 -50 -217 -150 -7 -92
40 -125 140 -97 40 11 78 51 78 82 0 24 -47 43 -80 31 -27 -9 -35 -43 -12 -51
9 -3 12 3 10 14 -2 14 4 20 21 22 53 8 46 -39 -11 -73 -23 -13 -34 -14 -62 -5
-45 14 -50 33 -27 85 21 47 69 84 134 105 67 21 180 -32 205 -97 13 -32 52
-186 52 -203 0 -6 -21 4 -47 23 -125 91 -191 88 -328 -13 -77 -57 -115 -104
-117 -148 -3 -73 3 -104 38 -175 40 -83 46 -91 97 -134 80 -69 186 -35 345
111 17 16 32 24 32 18 0 -23 -27 -77 -54 -109 l-28 -33 80 0 c135 0 212 18
155 36 -61 19 -94 39 -99 60 -6 25 -3 65 16 214 6 52 10 138 8 190 -3 83 -7
104 -37 165 -37 78 -54 101 -91 120 -27 14 -103 29 -110 21z m20 -322 c69 -36
130 -128 130 -194 0 -32 -80 -112 -179 -179 -74 -50 -106 -54 -137 -18 -27 31
-65 128 -69 177 -8 84 53 197 126 232 33 17 76 11 129 -18z"/>
<path d="M3168 1494 c-3 -3 -54 -6 -112 -7 -103 -1 -107 -2 -102 -22 3 -11 9
-45 12 -75 l6 -55 -36 40 c-19 22 -35 43 -36 47 0 4 -18 19 -41 34 -63 39
-127 35 -231 -14 -158 -74 -200 -150 -201 -366 0 -145 13 -179 95 -249 82 -69
175 -105 243 -94 54 9 120 61 161 127 20 33 39 60 41 60 3 0 2 -105 -1 -232
-6 -293 -12 -316 -93 -373 -116 -82 -125 -84 -238 -60 -120 25 -150 63 -149
190 1 98 16 148 50 164 35 16 89 14 104 -4 7 -8 18 -15 25 -15 17 0 41 -30 48
-61 8 -30 -31 -94 -62 -102 -31 -8 -57 27 -45 60 9 25 32 31 26 6 -5 -24 18
-23 24 2 9 35 -10 55 -43 46 -53 -14 -55 -114 -4 -144 16 -9 34 -17 40 -17 21
0 88 69 106 109 l18 40 -28 46 c-40 69 -75 87 -155 80 -118 -12 -154 -52 -165
-189 -8 -98 3 -146 47 -204 42 -55 92 -78 201 -92 l88 -11 97 48 c73 36 113
64 162 113 l65 65 3 65 c1 36 -7 148 -19 250 -15 137 -20 247 -20 424 0 276
-8 253 114 323 42 25 77 47 77 49 0 6 -66 5 -72 -2z m-316 -117 c93 -106 105
-128 113 -213 9 -96 -1 -133 -64 -219 -59 -80 -149 -149 -196 -149 -38 0 -90
35 -110 74 -27 52 -47 173 -49 290 -1 108 1 118 27 166 47 87 86 112 173 113
50 1 51 0 106 -62z"/>
</g>
</svg>
